<svg width="43" height="50" viewBox="0 0 43 50" fill="none" xmlns="http://www.w3.org/2000/svg">
<path d="M7.95259 37.8186C7.95259 39.1244 9.02227 40.1902 10.3384 40.1902H13.0658V46.9086C13.0658 48.6106 14.4379 50 16.1236 50C17.8149 50 19.1814 48.6161 19.1814 46.9086V40.1846H23.9418V46.903C23.9418 48.605 25.3139 49.9944 26.9996 49.9944C28.6909 49.9944 30.0574 48.6106 30.0574 46.903V40.1846H32.7848C34.1009 40.1846 35.1706 39.1188 35.1706 37.813V15.7605H7.95259V37.8186V37.8186ZM27.9517 4.33239L30.4663 0.705319C30.6119 0.493275 30.5783 0.208689 30.3822 0.0691864C30.1862 -0.0647363 29.9062 0.0022254 29.7606 0.21427L27.1508 3.98642C25.4315 3.31123 23.5161 2.93736 21.5056 2.93736C19.495 2.93736 17.5797 3.31123 15.8604 3.98642L13.2506 0.21985C13.105 0.00780543 12.8249 -0.0647359 12.6289 0.0747668C12.4329 0.208689 12.3993 0.487695 12.5449 0.710899L15.0595 4.33797C11.0608 6.19057 8.26061 9.70045 7.90218 13.8018H35.1202C34.7506 9.69487 31.9448 6.18499 27.9517 4.33239V4.33239ZM15.7596 10.052C15.4616 10.052 15.1703 9.96397 14.9226 9.79903C14.6748 9.63409 14.4818 9.39966 14.3677 9.12538C14.2537 8.8511 14.2239 8.54929 14.282 8.25811C14.3401 7.96694 14.4836 7.69948 14.6943 7.48955C14.905 7.27962 15.1734 7.13666 15.4657 7.07875C15.7579 7.02083 16.0608 7.05055 16.3361 7.16416C16.6114 7.27777 16.8466 7.47017 17.0122 7.71701C17.1777 7.96386 17.2661 8.25407 17.2661 8.55095C17.265 8.94874 17.106 9.32994 16.8237 9.61121C16.5414 9.89249 16.1588 10.051 15.7596 10.052V10.052ZM27.4308 10.052C27.1329 10.052 26.8416 9.96397 26.5939 9.79903C26.3461 9.63409 26.153 9.39966 26.039 9.12538C25.925 8.8511 25.8951 8.54929 25.9533 8.25811C26.0114 7.96694 26.1549 7.69948 26.3656 7.48955C26.5763 7.27962 26.8447 7.13666 27.1369 7.07875C27.4292 7.02083 27.7321 7.05055 28.0073 7.16416C28.2826 7.27777 28.5179 7.47017 28.6834 7.71701C28.849 7.96386 28.9373 8.25407 28.9373 8.55095C28.9363 8.94874 28.7773 9.32994 28.4949 9.61121C28.2126 9.89249 27.8301 10.051 27.4308 10.052ZM39.9422 15.6712C38.2508 15.6712 36.8843 17.055 36.8843 18.7626V30.8379C36.8843 32.5398 38.2564 33.9293 39.9422 33.9293C41.6335 33.9293 43 32.5454 43 30.8379V18.757C43.0056 17.0495 41.6391 15.6712 39.9422 15.6712ZM3.05783 15.6712C1.3665 15.6712 0 17.055 0 18.7626V30.8379C0 32.5398 1.3721 33.9293 3.05783 33.9293C4.74915 33.9293 6.11565 32.5454 6.11565 30.8379V18.757C6.11565 17.0495 4.74355 15.6712 3.05783 15.6712Z" fill="black"/>
</svg>
