<svg width="38" height="38" viewBox="0 0 38 38" fill="none" xmlns="http://www.w3.org/2000/svg">
<path d="M37.441 19.2162C37.3913 29.3361 29.1378 37.4907 19.0179 37.4409C8.89802 37.3912 0.725047 29.156 0.774762 19.0361C0.824567 8.89789 9.07815 0.725 19.1981 0.774716C29.3179 0.824431 37.4908 9.07801 37.441 19.2162ZM4.44147 19.0358C4.40167 27.139 10.9327 33.7345 19.036 33.7743C27.1392 33.8141 33.7347 27.2831 33.7745 19.1799C33.8143 11.0766 27.2833 4.48115 19.1801 4.44134C11.0768 4.40153 4.48128 10.9325 4.44147 19.0358ZM28.2726 19.5562L28.272 19.6662C28.2684 20.3995 27.6789 20.9833 26.9456 20.9797L18.2923 20.9372C17.6507 20.934 17.0473 20.6011 16.7201 20.0311L12.1925 12.4004C11.8289 11.7753 12.0162 10.9696 12.6414 10.606C12.7903 10.5146 12.956 10.4542 13.1288 10.4283C13.3015 10.4024 13.4777 10.4115 13.6468 10.4551C13.816 10.4987 13.9746 10.5759 14.1133 10.6821C14.252 10.7882 14.3679 10.9213 14.4541 11.0732L18.6358 18.1888L26.9591 18.2297C27.6924 18.2333 28.2762 18.8229 28.2726 19.5562Z" fill="black"/>
<path d="M34.9078 21.1078C36.0124 21.1078 36.9078 20.2124 36.9078 19.1078C36.9078 18.0032 36.0124 17.1078 34.9078 17.1078C33.8033 17.1078 32.9078 18.0032 32.9078 19.1078C32.9078 20.2124 33.8033 21.1078 34.9078 21.1078Z" fill="black"/>
<path d="M3.30774 21.3078C4.41231 21.3078 5.30774 20.4124 5.30774 19.3078C5.30774 18.2032 4.41231 17.3078 3.30774 17.3078C2.20317 17.3078 1.30774 18.2032 1.30774 19.3078C1.30774 20.4124 2.20317 21.3078 3.30774 21.3078Z" fill="black"/>
<path d="M19.3077 36.9078C20.4123 36.9078 21.3077 36.0124 21.3077 34.9078C21.3077 33.8032 20.4123 32.9078 19.3077 32.9078C18.2032 32.9078 17.3077 33.8032 17.3077 34.9078C17.3077 36.0124 18.2032 36.9078 19.3077 36.9078Z" fill="black"/>
<path d="M19.6862 10.3613L20.2155 4.46191L20.3117 3.38929L15.3315 4.02375L19.6862 10.3613Z" fill="black" stroke="black"/>
</svg>
