<svg width="26" height="26" viewBox="0 0 26 26" fill="none" xmlns="http://www.w3.org/2000/svg">
<g clip-path="url(#clip0_264_85)">
<path d="M26 13.0796C26 5.85485 20.1792 -0.00164795 13 -0.00164795C5.81745 -2.2949e-05 -0.0032959 5.85485 -0.0032959 13.0812C-0.0032959 19.6089 4.75145 25.0201 10.9655 26.0016V16.861H7.6667V13.0812H10.9687V10.1969C10.9687 6.91923 12.9106 5.10898 15.8795 5.10898C17.303 5.10898 18.7898 5.3641 18.7898 5.3641V8.5816H17.1502C15.5366 8.5816 15.0328 9.59073 15.0328 10.6259V13.0796H18.6371L18.0618 16.8594H15.0312V26C21.2452 25.0185 26 19.6072 26 13.0796Z" fill="black"/>
</g>
<defs>
<clipPath id="clip0_264_85">
<rect width="26" height="26" fill="white"/>
</clipPath>
</defs>
</svg>
