<svg width="26" height="26" viewBox="0 0 26 26" fill="none" xmlns="http://www.w3.org/2000/svg">
<circle cx="13" cy="13" r="13" fill="black"/>
<path d="M13 4.875C10.7951 4.875 10.5178 4.88516 9.65148 4.92375C8.78516 4.96437 8.19508 5.10047 7.67812 5.30156C7.13588 5.50552 6.64472 5.82545 6.23898 6.23898C5.8257 6.64493 5.50581 7.13602 5.30156 7.67812C5.10047 8.19406 4.96336 8.78516 4.92375 9.64844C4.88516 10.5168 4.875 10.793 4.875 13.001C4.875 15.207 4.88516 15.4832 4.92375 16.3495C4.96437 17.2148 5.10047 17.8049 5.30156 18.3219C5.50977 18.8561 5.78703 19.3091 6.23898 19.761C6.68992 20.213 7.14289 20.4912 7.67711 20.6984C8.19508 20.8995 8.78414 21.0366 9.64945 21.0762C10.5168 21.1148 10.793 21.125 13 21.125C15.207 21.125 15.4822 21.1148 16.3495 21.0762C17.2138 21.0356 17.8059 20.8995 18.3229 20.6984C18.8648 20.4944 19.3556 20.1745 19.761 19.761C20.213 19.3091 20.4902 18.8561 20.6984 18.3219C20.8985 17.8049 21.0356 17.2148 21.0762 16.3495C21.1148 15.4832 21.125 15.207 21.125 13C21.125 10.793 21.1148 10.5168 21.0762 9.64945C21.0356 8.78516 20.8985 8.19406 20.6984 7.67812C20.4942 7.13601 20.1743 6.64491 19.761 6.23898C19.3554 5.8253 18.8642 5.50534 18.3219 5.30156C17.8039 5.10047 17.2128 4.96336 16.3485 4.92375C15.4812 4.88516 15.2059 4.875 12.998 4.875H13.001H13ZM12.2718 6.33953H13.001C15.1704 6.33953 15.4273 6.34664 16.2835 6.38625C17.0757 6.4218 17.5063 6.55484 17.7927 6.66555C18.1716 6.81281 18.4427 6.98953 18.7271 7.27391C19.0115 7.55828 19.1872 7.82844 19.3345 8.20828C19.4462 8.49367 19.5782 8.9243 19.6138 9.71648C19.6534 10.5727 19.6615 10.8296 19.6615 12.998C19.6615 15.1663 19.6534 15.4243 19.6138 16.2805C19.5782 17.0727 19.4452 17.5023 19.3345 17.7887C19.2042 18.1415 18.9963 18.4604 18.7261 18.722C18.4417 19.0064 18.1716 19.1821 17.7917 19.3294C17.5073 19.4411 17.0767 19.5731 16.2835 19.6097C15.4273 19.6483 15.1704 19.6574 13.001 19.6574C10.8316 19.6574 10.5737 19.6483 9.7175 19.6097C8.92531 19.5731 8.4957 19.4411 8.2093 19.3294C7.85637 19.1993 7.53708 18.9918 7.27492 18.722C7.00451 18.46 6.79628 18.1407 6.66555 17.7877C6.55484 17.5023 6.4218 17.0716 6.38625 16.2795C6.34766 15.4233 6.33953 15.1663 6.33953 12.9959C6.33953 10.8266 6.34766 10.5706 6.38625 9.71445C6.42281 8.92227 6.55484 8.49164 6.66656 8.20523C6.81383 7.82641 6.99055 7.55523 7.27492 7.27086C7.5593 6.98648 7.82945 6.81078 8.2093 6.66352C8.4957 6.5518 8.92531 6.41977 9.7175 6.3832C10.467 6.34867 10.7575 6.33852 12.2718 6.3375V6.33953V6.33953ZM17.3377 7.68828C17.2097 7.68828 17.0829 7.7135 16.9646 7.7625C16.8463 7.8115 16.7388 7.88332 16.6483 7.97385C16.5578 8.06439 16.4859 8.17187 16.437 8.29016C16.388 8.40846 16.3627 8.53524 16.3627 8.66328C16.3627 8.79132 16.388 8.9181 16.437 9.0364C16.4859 9.15469 16.5578 9.26217 16.6483 9.35271C16.7388 9.44325 16.8463 9.51507 16.9646 9.56406C17.0829 9.61306 17.2097 9.63828 17.3377 9.63828C17.5963 9.63828 17.8443 9.53556 18.0272 9.35271C18.21 9.16986 18.3127 8.92187 18.3127 8.66328C18.3127 8.4047 18.21 8.1567 18.0272 7.97385C17.8443 7.791 17.5963 7.68828 17.3377 7.68828V7.68828ZM13.001 8.82781C12.4476 8.81918 11.8979 8.92073 11.3841 9.12655C10.8703 9.33237 10.4026 9.63835 10.0081 10.0267C9.61369 10.415 9.30045 10.8779 9.08664 11.3885C8.87282 11.899 8.76271 12.447 8.76271 13.0005C8.76271 13.554 8.87282 14.102 9.08664 14.6125C9.30045 15.1231 9.61369 15.586 10.0081 15.9743C10.4026 16.3627 10.8703 16.6686 11.3841 16.8745C11.8979 17.0803 12.4476 17.1818 13.001 17.1732C14.0964 17.1561 15.1412 16.709 15.9097 15.9283C16.6783 15.1476 17.1091 14.096 17.1091 13.0005C17.1091 11.905 16.6783 10.8534 15.9097 10.0727C15.1412 9.29204 14.0964 8.8449 13.001 8.82781V8.82781ZM13.001 10.2913C13.7194 10.2913 14.4084 10.5767 14.9163 11.0847C15.4243 11.5927 15.7097 12.2816 15.7097 13C15.7097 13.7184 15.4243 14.4073 14.9163 14.9153C14.4084 15.4233 13.7194 15.7087 13.001 15.7087C12.2826 15.7087 11.5937 15.4233 11.0857 14.9153C10.5777 14.4073 10.2923 13.7184 10.2923 13C10.2923 12.2816 10.5777 11.5927 11.0857 11.0847C11.5937 10.5767 12.2826 10.2913 13.001 10.2913V10.2913Z" fill="white"/>
</svg>
