<svg width="41" height="43" viewBox="0 0 41 43" fill="none" xmlns="http://www.w3.org/2000/svg">
<path d="M36.6071 0H4.39286C1.96763 0 0 2.06362 0 4.60714V38.3929C0 40.9364 1.96763 43 4.39286 43H36.6071C39.0324 43 41 40.9364 41 38.3929V4.60714C41 2.06362 39.0324 0 36.6071 0ZM22.3121 33.5362C22.3121 37.721 19.9692 39.631 16.5556 39.631C13.4714 39.631 11.6868 37.9609 10.7717 35.9357L13.9107 33.9489C14.5147 35.0719 15.0638 36.0221 16.3908 36.0221C17.6538 36.0221 18.4592 35.5038 18.4592 33.4786V19.7435H22.3121V33.5362V33.5362ZM31.4272 39.631C27.8489 39.631 25.5335 37.8458 24.4078 35.5038L27.5469 33.6033C28.3705 35.0143 29.4504 36.0605 31.3449 36.0605C32.9373 36.0605 33.9623 35.2254 33.9623 34.0641C33.9623 32.6819 32.919 32.1924 31.1527 31.3766L30.1917 30.9446C27.4096 29.7065 25.5701 28.142 25.5701 24.8498C25.5701 21.8167 27.7757 19.5132 31.2076 19.5132C33.6603 19.5132 35.4174 20.4058 36.6804 22.7478L33.6786 24.7634C33.0196 23.5252 32.3058 23.0357 31.1984 23.0357C30.0728 23.0357 29.3589 23.7844 29.3589 24.7634C29.3589 25.9728 30.0728 26.4623 31.7292 27.2205L32.6902 27.6525C35.9665 29.121 37.806 30.6279 37.806 34.0065C37.806 37.6346 35.0788 39.631 31.4272 39.631V39.631Z" fill="black"/>
</svg>
