<svg width="39" height="50" viewBox="0 0 39 50" fill="none" xmlns="http://www.w3.org/2000/svg">
<path d="M22.6688 0C25.4027 6.36422 12.8661 10.2628 11.7 15.5672C10.6334 20.4351 19.1275 26.1454 19.1353 26.1454C17.8386 24.1317 16.8948 22.4335 15.6 19.2927C13.4063 13.9882 28.9673 9.20302 22.6688 0ZM30.9563 8.83567C30.9563 8.83567 19.9953 9.51845 19.4396 16.5885C19.1861 19.737 22.3334 21.3891 22.425 23.6817C22.503 25.5511 20.5355 27.1052 20.5355 27.1052C20.5355 27.1052 24.063 26.4762 25.1667 23.6201C26.3855 20.4505 22.7916 18.2868 23.1563 15.7461C23.5073 13.3208 30.9563 8.83567 30.9563 8.83567V8.83567ZM33.6375 25.1222C32.487 25.0703 31.1922 25.4915 30.0417 26.3243C32.3115 25.83 34.2479 27.234 34.2479 28.8496C34.2479 32.4712 29.0063 35.8812 29.0063 35.8812C29.0063 35.8812 37.1105 34.9869 37.1105 29.0304C37.1105 26.5724 35.5505 25.2126 33.6375 25.1222V25.1222ZM12.1271 25.1838C9.29955 25.2799 3.65625 25.7396 3.65625 27.888C3.65625 30.8787 16.8031 31.1114 26.2041 29.2708C26.2041 29.2708 28.7625 27.5129 29.4333 26.8667C23.2713 28.1284 9.20205 28.3245 9.20205 27.2263C9.20205 26.2204 13.7105 25.1838 13.7105 25.1838C13.7105 25.1838 13.0709 25.153 12.1271 25.1838V25.1838ZM11.273 30.7133C9.7266 30.7133 7.4334 31.9 7.4334 33.0559C7.4334 35.385 19.0749 37.1737 27.6666 33.7771L24.6792 31.975C18.8526 33.854 8.0886 33.229 11.273 30.7133ZM12.7355 35.9408C10.6256 35.9408 9.2625 37.2564 9.2625 38.2257C9.2625 41.2069 21.8693 41.5011 26.873 38.4661L23.7042 36.4217C19.9719 38.0084 10.5807 38.2411 12.7355 35.9408ZM5.6667 38.6469C2.22495 38.5796 0 40.1183 0 41.4088C0 48.2827 35.2833 47.9538 35.2833 40.928C35.2833 39.7644 33.8891 39.2085 33.3938 38.945C36.2739 45.6612 4.5708 45.1362 4.5708 41.1684C4.5708 40.2683 6.91665 39.3662 9.0792 39.7875L7.25205 38.7643C6.72698 38.6889 6.19729 38.649 5.6667 38.645V38.6469ZM39 43.2744C33.6375 48.3904 20.0655 50.2233 6.39795 47.0614C20.0636 52.6967 38.9318 49.5617 39 43.2744Z" fill="black"/>
</svg>
