<svg width="35" height="35" viewBox="0 0 35 35" fill="none" xmlns="http://www.w3.org/2000/svg">
<g clip-path="url(#clip0_51_3)">
<path d="M25.9755 32.8179C25.8453 32.8868 25.8562 32.9087 25.9809 32.8453C26.0194 32.8296 26.0546 32.807 26.0848 32.7786C26.0848 32.7556 26.0848 32.7556 25.9755 32.8179V32.8179ZM26.238 32.6758C26.1756 32.7272 26.1756 32.7272 26.25 32.6933C26.2775 32.6804 26.3026 32.663 26.3244 32.6418C26.3244 32.6123 26.3069 32.6189 26.238 32.6758V32.6758ZM26.4086 32.5729C26.3463 32.6243 26.3463 32.6244 26.4206 32.5904C26.4482 32.5773 26.4734 32.5595 26.495 32.5379C26.495 32.5106 26.4775 32.5161 26.4086 32.5729ZM26.5814 32.4712C26.5191 32.5226 26.5191 32.5226 26.5913 32.4876C26.6317 32.4658 26.6656 32.4428 26.6656 32.4362C26.6656 32.4089 26.6481 32.4143 26.5814 32.4712ZM26.8144 32.317C26.6952 32.3969 26.6536 32.4483 26.763 32.3914C26.8362 32.3465 26.9609 32.2481 26.9391 32.2481C26.892 32.2656 26.8527 32.2951 26.8133 32.317H26.8144ZM16.3548 0.0120064C16.275 0.0174751 16.0355 0.0393501 15.8255 0.0568501C10.8511 0.507475 6.19719 3.18498 3.24734 7.30951C1.61718 9.57165 0.557548 12.1941 0.158594 14.9537C0.0175 15.9162 0 16.2006 0 17.5054C0 18.8092 0.0175 19.0892 0.158594 20.0517C1.11125 26.6262 5.78813 32.1453 12.1275 34.1906C13.2683 34.5548 14.4637 34.8064 15.8255 34.9606C16.3548 35.0175 18.6441 35.0175 19.1734 34.9606C21.5272 34.6981 23.5145 34.1173 25.4811 33.1143C25.783 32.9612 25.8398 32.9208 25.7994 32.8869C24.84 31.6187 23.8888 30.3445 22.9458 29.0642L20.1491 25.2875L16.6458 20.0976C15.4805 18.36 14.3032 16.6303 13.1141 14.9089C13.102 14.9089 13.0867 17.2156 13.0802 20.0287C13.0681 24.9561 13.0681 25.1562 13.0058 25.27C12.946 25.4074 12.8389 25.5188 12.7039 25.5839C12.5956 25.6353 12.4983 25.6462 11.9809 25.6462H11.3892L11.235 25.55C11.1384 25.488 11.0599 25.4016 11.0075 25.2995L10.9331 25.1453L10.9386 18.2864L10.9506 11.4275L11.0589 11.2908C11.1281 11.2067 11.2132 11.1372 11.3094 11.0862C11.4527 11.0173 11.5095 11.0064 12.1013 11.0064C12.7958 11.0064 12.9106 11.0337 13.0933 11.2339C14.5125 13.3447 15.9194 15.4637 17.3141 17.5908C19.588 21.0383 22.692 25.7425 24.2178 28.0503L26.9927 32.2492L27.1294 32.1584C28.4629 31.2722 29.6714 30.2109 30.7223 29.0029C32.9268 26.4798 34.3573 23.3746 34.8425 20.0593C34.9836 19.0968 35.0011 18.8114 35.0011 17.5076C35.0011 16.2028 34.9836 15.9239 34.8425 14.9614C33.8898 8.38685 29.213 2.86779 22.8736 0.821381C21.6888 0.446139 20.4694 0.190744 19.2336 0.0590376C18.9022 0.0251314 16.6403 -0.0153374 16.3559 0.0141939L16.3548 0.0120064ZM23.5156 10.5962C23.597 10.6362 23.6696 10.692 23.7291 10.7603C23.7886 10.8287 23.8339 10.9083 23.8623 10.9944C23.8919 11.0862 23.8973 12.9883 23.8919 17.2725L23.8798 23.4237L22.7981 21.7612L21.7098 20.0976V15.6319C21.7098 12.7367 21.7219 11.1136 21.7372 11.0337C21.7907 10.8506 21.9135 10.6957 22.0795 10.6017C22.2152 10.5328 22.2677 10.5273 22.8091 10.5273C23.3155 10.5273 23.4008 10.5328 23.5145 10.5962H23.5156Z" fill="black"/>
</g>
<defs>
<clipPath id="clip0_51_3">
<rect width="35" height="35" fill="white"/>
</clipPath>
</defs>
</svg>
