<svg width="42" height="42" viewBox="0 0 42 42" fill="none" xmlns="http://www.w3.org/2000/svg">
<path d="M40.005 9.19394L23.0048 0.455274C22.3942 0.156908 21.7034 0 21.0006 0C20.2977 0 19.6069 0.156908 18.9963 0.455274L1.99505 9.193C1.38238 9.51479 0.876885 9.96656 0.527416 10.5047C0.177946 11.0428 -0.00368965 11.6491 5.68032e-05 12.2649V29.7169C-0.0036189 30.3332 0.178019 30.9398 0.527455 31.4784C0.876891 32.0169 1.38234 32.4692 1.99505 32.7917L6.45317 35.0734L6.47832 35.0856C8.72925 36.0727 9.59113 36.0727 10.5897 36.0727C14.105 36.0727 16.2892 34.1228 16.2892 30.9834V14.062C16.2913 13.8507 16.1955 13.6474 16.0228 13.4966C15.8502 13.3458 15.6148 13.2599 15.3683 13.2577H12.9205C12.674 13.2599 12.4386 13.3458 12.266 13.4966C12.0933 13.6474 11.9975 13.8507 11.9996 14.062V30.9834C12.0085 31.2257 11.9442 31.4658 11.8129 31.6804C11.6816 31.8951 11.4878 32.077 11.2503 32.2086C10.605 32.5461 9.66769 32.4748 8.61004 32.0071L4.33786 29.8032C4.3215 29.7936 4.30816 29.7807 4.299 29.7657C4.28984 29.7507 4.28515 29.7339 4.28536 29.7169V12.5115C4.28606 12.4917 4.29229 12.4724 4.30352 12.4551C4.31475 12.4378 4.33065 12.423 4.34989 12.4121L20.9573 3.69407C20.9698 3.68879 20.9834 3.68604 20.9973 3.68604C21.0111 3.68604 21.0248 3.68879 21.0372 3.69407L37.6545 12.4121C37.6734 12.4239 37.6887 12.4395 37.6992 12.4574C37.7097 12.4753 37.715 12.4952 37.7147 12.5152V29.7169C37.7151 29.7347 37.7109 29.7523 37.7023 29.7686C37.6938 29.7848 37.6812 29.7992 37.6654 29.8107L21.0339 38.3084C21.0056 38.3169 20.9747 38.3169 20.9464 38.3084L16.6994 36.1467C16.5733 36.0761 16.4277 36.0353 16.2772 36.0286C16.1268 36.0218 15.977 36.0493 15.843 36.1083L15.8058 36.127C14.6333 36.7223 14.3183 36.877 13.2311 37.2163C13.0539 37.2716 12.6372 37.4038 12.6011 37.7572C12.565 38.1106 12.961 38.3619 13.3131 38.5372L18.9897 41.5247C19.5945 41.8352 20.2862 41.9995 20.9913 42H21.0547C21.7421 41.9908 22.4146 41.8269 23.0048 41.5247L40.005 32.7945C40.6174 32.4711 41.1225 32.0181 41.4718 31.4792C41.8212 30.9403 42.003 30.3335 42 29.7169V12.2649C42.0034 11.6493 41.8216 11.0432 41.4722 10.5053C41.1227 9.96735 40.6174 9.51571 40.005 9.19394V9.19394Z" fill="black"/>
<path d="M26.4507 26.5464C22.4716 26.5464 21.6233 25.552 21.3714 23.9469C21.3431 23.7558 21.2389 23.5801 21.0779 23.4519C20.917 23.3237 20.7098 23.2515 20.4943 23.2483H18.3815C18.1434 23.2528 17.917 23.3415 17.7518 23.495C17.5866 23.6484 17.4961 23.8541 17.5001 24.0671C17.5001 25.4585 18.0465 30 26.4549 30C29.0564 30 31.2205 29.456 32.7111 28.4264C34.2018 27.3967 35 25.8984 35 24.1129C35 20.5295 32.3857 19.5485 27.2371 18.9072C22.0031 18.2564 22.0031 17.9252 22.0031 17.2C22.0031 16.678 22.0031 15.4555 25.787 15.4555C28.4792 15.4555 29.9208 15.7599 30.3817 17.3641C30.4226 17.542 30.5301 17.702 30.6865 17.8178C30.8429 17.9335 31.0388 17.998 31.2418 18.0006H33.3621C33.487 17.9995 33.6103 17.9746 33.7236 17.9276C33.837 17.8805 33.9378 17.8124 34.0194 17.7277C34.1824 17.5575 34.2637 17.3367 34.2456 17.1131C33.9713 13.7206 31.198 12 25.7902 12C20.8753 12 17.9419 13.9802 17.9419 17.2964C17.9419 20.9322 20.982 21.96 25.549 22.3856C30.8843 22.879 30.8843 23.5986 30.8843 24.2341C30.8875 25.2247 30.4276 26.5464 26.4507 26.5464Z" fill="black"/>
</svg>
