<svg width="37" height="50" viewBox="0 0 37 50" fill="none" xmlns="http://www.w3.org/2000/svg">
<path d="M0 3.06837V46.9294C0.000234176 47.0246 0.0228529 47.1175 0.0650198 47.1966C0.107187 47.2757 0.167025 47.3374 0.237031 47.374C0.307037 47.4106 0.384094 47.4204 0.45854 47.4023C0.532985 47.3842 0.601506 47.3388 0.655509 47.272L18.8559 25L0.655509 2.72574C0.601506 2.65893 0.532985 2.61362 0.45854 2.59547C0.384094 2.57733 0.307037 2.58718 0.237031 2.62377C0.167025 2.66036 0.107187 2.72207 0.0650198 2.80116C0.0228529 2.88026 0.000234176 2.97321 0 3.06837V3.06837ZM26.4872 15.8483L3.66622 0.0717604L3.65199 0.0617159C3.25887 -0.206138 2.88531 0.461264 3.20728 0.849652L21.0964 22.3136L26.4872 15.8483ZM3.20906 49.1503C2.88531 49.5387 3.25887 50.2061 3.65377 49.9383L3.668 49.9282L26.4872 34.1517L21.0964 27.6841L3.20906 49.1503ZM35.6999 22.2099L29.3271 17.8059L23.335 25L29.3271 32.1908L35.6999 27.7901C37.4334 26.5881 37.4334 23.4118 35.6999 22.2099Z" fill="black"/>
</svg>
