<svg width="45" height="40" viewBox="0 0 45 40" fill="none" xmlns="http://www.w3.org/2000/svg">
<path d="M42.5667 19.7407C42.5667 24.4908 33.5825 28.3407 22.5 28.3407C11.4175 28.3407 2.43335 24.4908 2.43335 19.7407C2.43335 14.9907 11.4175 11.1407 22.5 11.1407C33.5825 11.1407 42.5667 14.9907 42.5667 19.7407Z" stroke="black" stroke-width="3"/>
<path d="M12.9425 37.3851C17.1192 39.6498 24.7818 33.581 30.0622 23.8372C35.3398 14.0906 36.2342 4.35823 32.0574 2.09643C27.8807 -0.168242 20.2181 5.90049 14.9377 15.6443C9.66017 25.391 8.76577 35.1233 12.9425 37.3851V37.3851Z" stroke="black" stroke-width="3"/>
<path d="M32.0574 37.3851C27.8807 39.6498 20.2181 33.581 14.9377 23.8372C9.66017 14.0906 8.76577 4.35823 12.9425 2.09643C17.1192 -0.168242 24.7818 5.90049 30.0622 15.6443C35.3398 25.391 36.2342 35.1233 32.0574 37.3851Z" stroke="black" stroke-width="3"/>
<path d="M19.6333 19.7408C19.6333 20.501 19.9353 21.2302 20.4729 21.7678C21.0105 22.3054 21.7397 22.6074 22.5 22.6074C23.2603 22.6074 23.9894 22.3054 24.527 21.7678C25.0646 21.2302 25.3666 20.501 25.3666 19.7408C25.3666 18.9805 25.0646 18.2513 24.527 17.7137C23.9894 17.1761 23.2603 16.8741 22.5 16.8741C21.7397 16.8741 21.0105 17.1761 20.4729 17.7137C19.9353 18.2513 19.6333 18.9805 19.6333 19.7408Z" stroke="black" stroke-width="3"/>
</svg>
