<svg width="44" height="43" viewBox="0 0 44 43" fill="none" xmlns="http://www.w3.org/2000/svg">
<path d="M21.8862 0.00150033C20.0456 0.00644352 18.2127 0.234627 16.4295 0.680831C7.85067 2.76859 1.04121 10.3704 0.168206 18.9932C-0.913774 27.1492 3.30416 35.6482 10.5137 39.8587C17.5967 44.1956 27.1833 44.0221 34.1151 39.4605C40.3458 35.5016 44.2187 28.2912 43.9904 21.011C43.8846 13.8101 39.7519 6.8096 33.4277 3.11028C29.9838 1.02924 25.9322 -0.0146422 21.8862 0.000155125V0.00150033ZM21.7638 3.04167C30.828 3.02687 39.7079 9.88609 40.6166 19.051C42.3503 29.2033 33.7357 39.5237 23.2239 39.8251C13.2276 40.799 3.55987 32.5031 3.27391 22.6804C2.53014 14.7288 7.89329 6.83247 15.5538 4.20393C17.5289 3.43416 19.6364 3.04191 21.7624 3.0484L21.7638 3.04167ZM31.1015 8.83011C26.1742 12.5698 21.4558 16.557 16.6371 20.411C18.8423 20.4379 21.0626 20.4379 23.2747 20.4231C25.8594 16.5422 28.5169 12.711 31.1015 8.82876V8.83011ZM20.7189 22.5553C18.1343 26.4443 15.4713 30.2822 12.8839 34.1712C17.8263 30.4369 22.5227 26.4227 27.3703 22.5902C25.1528 22.5656 22.9352 22.5544 20.7176 22.5566L20.7189 22.5553Z" fill="black"/>
</svg>
