<svg width="26" height="26" viewBox="0 0 26 26" fill="none" xmlns="http://www.w3.org/2000/svg">
<circle cx="13" cy="13" r="13" fill="black"/>
<path d="M19.3406 9.74649C19.3475 9.88689 19.3501 10.029 19.3501 10.1694C19.3501 14.4941 16.0594 19.4792 10.0421 19.4792C8.19353 19.4792 6.47493 18.9375 5.02673 18.0084C5.88333 18.112 6.75193 18.0458 7.58291 17.8135C8.41389 17.5812 9.19095 17.1874 9.86967 16.6547C9.1871 16.6418 8.52562 16.4159 7.97771 16.0086C7.42981 15.6014 7.02288 15.033 6.8138 14.3832C7.30439 14.4749 7.80929 14.4557 8.29147 14.3268C7.551 14.1767 6.88521 13.7751 6.40694 13.1902C5.92867 12.6054 5.66733 11.8731 5.6672 11.1176V11.0768C6.1215 11.3295 6.6296 11.4701 7.1492 11.4868C6.45576 11.0245 5.96488 10.315 5.77676 9.50305C5.58864 8.69114 5.71746 7.83805 6.13693 7.11789C6.95835 8.12882 7.98324 8.95566 9.14503 9.54469C10.3068 10.1337 11.5795 10.4718 12.8805 10.5369C12.8242 10.2922 12.796 10.0418 12.7964 9.79069C12.7964 9.3612 12.881 8.93592 13.0454 8.53914C13.2098 8.14236 13.4507 7.78184 13.7544 7.47819C14.0582 7.17454 14.4188 6.9337 14.8156 6.76942C15.2124 6.60514 15.6377 6.52064 16.0672 6.52076C16.5148 6.52003 16.9578 6.61127 17.3687 6.78883C17.7795 6.96639 18.1495 7.22648 18.4557 7.55296C19.1882 7.40796 19.8907 7.13952 20.5331 6.75909C20.2888 7.51673 19.7775 8.15981 19.0945 8.56869C19.743 8.49181 20.3763 8.31829 20.9734 8.05389C20.5347 8.7112 19.9817 9.28448 19.3406 9.74649V9.74649Z" fill="white"/>
</svg>
