<svg width="19" height="20" viewBox="0 0 19 20" fill="none" xmlns="http://www.w3.org/2000/svg">
<path d="M12.172 5.00004L5.58602 11.586C5.395 11.7705 5.24264 11.9912 5.13782 12.2352C5.033 12.4792 4.97783 12.7417 4.97552 13.0072C4.97321 13.2728 5.02381 13.5362 5.12438 13.7819C5.22494 14.0277 5.37344 14.251 5.56123 14.4388C5.74902 14.6266 5.97232 14.7751 6.21811 14.8757C6.4639 14.9762 6.72726 15.0269 6.99282 15.0245C7.25838 15.0222 7.52082 14.9671 7.76483 14.8622C8.00884 14.7574 8.22953 14.6051 8.41402 14.414L14.828 7.82804C15.5567 7.07363 15.9598 6.06322 15.9507 5.01444C15.9416 3.96565 15.5209 2.9624 14.7793 2.22077C14.0377 1.47913 13.0344 1.05846 11.9856 1.04935C10.9368 1.04023 9.92643 1.44341 9.17202 2.17204L2.75702 8.75704C1.63171 9.88236 0.999512 11.4086 0.999512 13C0.999512 14.5915 1.63171 16.1177 2.75702 17.243C3.88233 18.3684 5.40859 19.0005 7.00002 19.0005C8.59145 19.0005 10.1177 18.3684 11.243 17.243L17.5 11" stroke="black" stroke-width="2" stroke-linecap="round" stroke-linejoin="round"/>
</svg>
